<svg viewBox="0 0 34 31" fill="none" xmlns="http://www.w3.org/2000/svg">
<path d="M31.5056 12.4402L4.35981 0.276804C2.01495 -0.77391 -0.514665 1.33077 0.0909978 3.82719L1.49679 9.62151C1.6962 10.4433 2.23136 11.1555 2.96515 11.5755L8.41338 14.695C8.85107 14.9457 8.85205 15.5769 8.41338 15.8281L2.96521 18.9476C2.23142 19.3677 1.69627 20.08 1.49685 20.9017L0.0909978 26.696C-0.513363 29.1866 2.01196 31.2982 4.35981 30.2463L31.5056 18.083C33.9441 16.9903 33.9409 13.5313 31.5056 12.4402ZM23.3898 16.3744L13.7857 20.6777C13.1711 20.953 12.4497 20.6783 12.1742 20.0635C11.8988 19.4489 12.1739 18.7274 12.7884 18.452L19.9089 15.2615L12.7884 12.0711C12.1739 11.7956 11.8988 11.0741 12.1742 10.4596C12.4496 9.84502 13.1709 9.56989 13.7857 9.84534L23.3898 14.1488C24.3486 14.5783 24.3493 15.9445 23.3898 16.3744Z" fill="#F2C94C"/>
</svg>
